# xmcd
#
# Track frame offsets: 
#        182
#        11075
#        21230
#        32090
#        41830
#        53545
#        64715
#        79110
#        90707
#        102585
#        115035
#        124410
#        136670
#        149077
#
# Disc length: 2187 seconds
#
# Revision: 1
# Processed by: cddbd v1.5.2PL0 Copyright (c) Steve Scherf et al.
# Submitted via: ExactAudioCopyFreeDBPlugin 1.0
#
DISCID=c108890e
DTITLE=Slim Withman - Collection
DYEAR=1900
DGENRE=Country
TTITLE0=Tumbling Tumbleweeds
TTITLE1=The Twelfth Of Never
TTITLE2=The Most Beautiful Girl In The World
TTITLE3=From A Jack To A King
TTITLE4=I Remember You
TTITLE5=Edelweiss
TTITLE6=Red River Valley
TTITLE7=Happy Anniversary
TTITLE8=Send Me The Pillow
TTITLE9=There Goes My Everything
TTITLE10=Please Help Me I'm Falling
TTITLE11=I Love You Because
TTITLE12=I Fall To Pieces
TTITLE13=Ghost Riders In The Sky
EXTD=knight records kncd 13053
EXTT0=
EXTT1=
EXTT2=
EXTT3=
EXTT4=
EXTT5=
EXTT6=
EXTT7=
EXTT8=
EXTT9=
EXTT10=
EXTT11=
EXTT12=
EXTT13=
PLAYORDER=
